<svg width="38" height="25" viewBox="0 0 38 25" fill="none" xmlns="http://www.w3.org/2000/svg">
<g clip-path="url(#clip0_204_23259)">
<path d="M14.2234 19.2999C13.976 18.4651 13.8517 17.5103 13.8517 16.0912V8.70742C13.8517 4.72427 11.738 2.7915 7.39169 2.7915C4.9544 2.7915 2.73342 3.48004 0.975526 4.64506L2.46105 7.49243C3.88504 6.63267 5.17071 6.23966 6.49111 6.23966C7.81152 6.23966 9.40307 6.66558 9.40307 8.70803V8.92616L6.78785 9.01756C2.47568 9.1638 0 11.1136 0 14.3735C0 17.6334 2.20575 19.6301 5.35899 19.6301C7.11019 19.6301 8.58475 19.1019 9.87529 18.0093C10.2007 18.8691 10.6156 19.2999 11.6947 19.2999H14.2234ZM9.40368 15.1876C8.6926 15.7823 7.79994 16.0851 6.76043 16.0851C5.27369 16.0851 4.38712 15.3375 4.38712 14.0737C4.38712 13.2798 4.68874 12.2153 7.33198 12.1336L9.40368 12.0721V15.1882V15.1876Z" fill="#FF0000"/>
<path d="M28.8898 19.254H31.1004C32.0176 19.254 32.4242 19.3299 32.6801 19.4456C32.2875 18.2269 31.0501 17.277 26.6897 16.951C27.3861 17.7572 28.1175 18.5296 28.8886 19.254H28.8898Z" fill="#FF0000"/>
<path d="M26.6898 16.9522C22.4579 12.0344 19.607 5.74259 18.4643 0.5C18.4643 0.5 16.1381 2.5517 15.9535 6.86658C15.749 11.5822 18.2786 16.3364 26.6092 16.9428C26.6361 16.9475 26.6641 16.9475 26.6898 16.951V16.9522Z" fill="#FF0000"/>
<path d="M28.8887 19.2539C25.6043 19.2539 19.9341 19.2539 19.9341 19.2539C20.0533 19.5319 20.4634 19.7271 21.3969 19.782C26.9865 20.1138 27.7775 24.4999 35.7775 24.4999C36.4797 24.4999 36.9179 24.4579 37.3607 24.3749C34.199 23.4028 31.3598 21.5755 28.8887 19.2527V19.2539Z" fill="#FF0000"/>
</g>
<defs>
<clipPath id="clip0_204_23259">
<rect width="37.3608" height="24" fill="white" transform="translate(0 0.5)"/>
</clipPath>
</defs>
</svg>
