<svg width="24" height="24" viewBox="0 0 24 24" fill="none" xmlns="http://www.w3.org/2000/svg">
<g id="Luggage Copy">
<path id="Shape" fill-rule="evenodd" clip-rule="evenodd" d="M16.9891 11.0145H14.99V2.99609C14.99 2.44609 14.5402 1.99609 13.9905 1.99609H9.99227C9.44252 1.99609 8.99272 2.44609 8.99272 2.99609V11.0145H6.99362C5.98681 11.0145 5.99321 11.7691 6.00144 12.7409C6.0022 12.8304 6.00297 12.9217 6.00297 13.0145V18.9961C6.00297 19.0888 6.0022 19.1802 6.00144 19.2696C5.99321 20.2415 5.98681 20.9961 6.99362 20.9961C6.99362 21.5461 7.44341 21.9961 7.99317 21.9961C8.54292 21.9961 8.99272 21.5461 8.99272 20.9961H14.99C14.99 21.5461 15.4398 21.9961 15.9896 21.9961C16.5393 21.9961 16.9891 21.5461 16.9891 20.9961C18.0097 20.9961 18.005 20.2207 17.9991 19.2297C17.9987 19.153 17.9982 19.0751 17.9982 18.9961V13.0145C17.9982 12.9355 17.9987 12.8575 17.9991 12.7809C18.005 11.7899 18.0097 11.0145 16.9891 11.0145ZM9.27344 18.6628H10.3649V13.1072H9.27344V18.6628ZM13.6368 18.6628H14.7283V13.1072H13.6368V18.6628ZM10.3633 10.8848H13.636V3.10706H10.3633V10.8848Z" fill="#FF5C00"/>
</g>
</svg>
