<svg width="24" height="24" viewBox="0 0 24 24" fill="none" xmlns="http://www.w3.org/2000/svg">
<path fill-rule="evenodd" clip-rule="evenodd" d="M12.0722 10.4595C11.8036 12.5088 11.5181 14.556 11.2791 16.6086C11.2215 17.1036 11.0911 17.2992 10.5521 17.2919C8.26997 17.261 5.98723 17.2789 3.70475 17.2768C3.51583 17.2766 3.32677 17.2588 3.06681 17.2455C3.04927 17.0043 3.01919 16.7809 3.01881 16.5574C3.0142 13.4857 3.02661 10.4138 3.00012 7.34224C2.99538 6.78877 3.13132 6.56708 3.71154 6.62237C4.23531 6.67229 4.76766 6.63287 5.35108 6.63287V15.3062H9.31099C9.53242 13.6307 9.7545 11.9657 9.97172 10.3C10.1096 9.24341 10.2486 8.18678 10.3693 7.1281C10.4109 6.76355 10.5641 6.63709 10.9416 6.62429C13.3261 6.54327 13.3254 6.53431 13.9219 8.83484C14.2695 10.1754 14.618 11.5155 14.9679 12.8554C14.9779 12.8937 15.0089 12.9263 15.0785 13.0422C15.5182 11.3536 15.949 9.7307 16.3619 8.10332C16.6935 6.79683 16.9067 6.62045 18.2494 6.63171C19.6835 6.64362 19.6636 6.64618 19.8476 8.11804C20.1994 10.9308 20.577 13.7405 20.9414 16.5518C20.9682 16.7593 20.9759 16.9693 21.0001 17.2751C20.3601 17.2751 19.7674 17.3107 19.185 17.2489C19.048 17.2343 18.8686 16.9015 18.84 16.6968C18.5608 14.6912 18.3095 12.6816 18.0501 10.6732C18.0371 10.5719 18.0223 10.4707 17.9238 10.3532C17.8376 10.6524 17.7452 10.9499 17.6666 11.2511C17.1928 13.0656 16.713 14.8787 16.2574 16.6978C16.1559 17.1033 16.0112 17.2976 15.5392 17.2938C14.0326 17.2816 14.0228 17.3072 13.6307 15.8552C13.2083 14.2914 12.8073 12.722 12.3954 11.1555C12.3327 10.9162 12.2623 10.679 12.1954 10.441C12.1544 10.4472 12.1133 10.4534 12.0722 10.4595Z" fill="#FF5C00"/>
</svg>
