<svg width="24" height="24" viewBox="0 0 24 24" fill="none" xmlns="http://www.w3.org/2000/svg">
<path fill-rule="evenodd" clip-rule="evenodd" d="M13.0811 14.1658C12.6966 14.1658 12.4126 14.0723 12.2135 13.8799C12.0445 13.7195 11.9459 13.4936 11.9185 13.2094C11.902 13.056 11.7504 12.936 11.5714 12.936H10.3504C10.2535 12.936 10.164 12.9695 10.0965 13.0295C10.0298 13.0902 9.99508 13.172 10.0006 13.2553C10.0462 13.8573 10.2746 14.3558 10.681 14.7366C11.1002 15.1284 11.6819 15.376 12.4117 15.4718C12.4701 15.4796 12.513 15.5256 12.513 15.5785V16.1868C12.513 16.3511 12.6701 16.4851 12.8628 16.4851H13.3186C13.5113 16.4851 13.6674 16.3511 13.6674 16.1868V15.5738C13.6674 15.5201 13.7149 15.4749 13.7807 15.4664C14.431 15.3815 14.9579 15.1696 15.3452 14.8371C15.7799 14.4679 16 13.982 16 13.3908C16 13.077 15.9425 12.7966 15.8274 12.5583C15.7132 12.3176 15.5452 12.1027 15.3296 11.9173C15.1159 11.7335 14.8502 11.5669 14.5433 11.4212C14.2373 11.2779 13.8455 11.1237 13.3779 10.9641C12.9277 10.8091 12.619 10.6588 12.4582 10.5163C12.3057 10.3807 12.2308 10.2024 12.2308 9.97186C12.2308 9.72576 12.3094 9.53184 12.4637 9.39554C12.619 9.25847 12.8363 9.19227 13.1286 9.19227C13.4218 9.19227 13.6474 9.27872 13.82 9.45551C13.9661 9.60426 14.051 9.82467 14.0766 10.1097C14.0894 10.2647 14.2419 10.3862 14.4237 10.3862H15.6438C15.7406 10.3862 15.831 10.3535 15.8968 10.2935C15.9635 10.2335 15.9982 10.1518 15.9927 10.0692C15.9516 9.4999 15.7488 9.02094 15.389 8.64555C15.02 8.25926 14.5141 8.00848 13.8875 7.90178C13.8309 7.89244 13.7898 7.84805 13.7898 7.79742V7.08637C13.7898 6.92204 13.6337 6.78809 13.4419 6.78809H12.9806C12.7879 6.78809 12.6309 6.92204 12.6309 7.08637V7.77562C12.6309 7.82858 12.5834 7.87297 12.5185 7.88154C11.8929 7.96565 11.376 8.17904 10.9814 8.51549C10.5394 8.89165 10.3156 9.37997 10.3156 9.96719C10.3156 10.3052 10.3805 10.6027 10.5102 10.8504C10.638 11.0972 10.8198 11.3153 11.0509 11.4991C11.2792 11.679 11.555 11.8402 11.871 11.9781C12.1833 12.1144 12.5578 12.253 12.9843 12.3901C13.3935 12.5209 13.6821 12.6634 13.8474 12.8137C14.0072 12.9586 14.0848 13.151 14.0848 13.401C14.0848 13.6385 13.999 13.8207 13.8218 13.9586C13.6446 14.0964 13.3962 14.1658 13.0811 14.1658Z" fill="#FF5C00"/>
<path fill-rule="evenodd" clip-rule="evenodd" d="M13 2.90918C8.03 2.90918 4 6.81706 4 11.6365H1L4.89 15.4086L4.96 15.5443L9 11.6365H6C6 7.88372 9.13 4.84857 13 4.84857C16.87 4.84857 20 7.88372 20 11.6365C20 15.3892 16.87 18.4243 13 18.4243C11.07 18.4243 9.32 17.6583 8.06 16.4268L6.64 17.8037C8.27 19.3843 10.51 20.3637 13 20.3637C17.97 20.3637 22 16.4558 22 11.6365C22 6.81706 17.97 2.90918 13 2.90918Z" fill="#FF5C00"/>
<mask id="mask0_220_11695" style="mask-type:luminance" maskUnits="userSpaceOnUse" x="1" y="2" width="21" height="19">
<path fill-rule="evenodd" clip-rule="evenodd" d="M13 2.90918C8.03 2.90918 4 6.81706 4 11.6365H1L4.89 15.4086L4.96 15.5443L9 11.6365H6C6 7.88372 9.13 4.84857 13 4.84857C16.87 4.84857 20 7.88372 20 11.6365C20 15.3892 16.87 18.4243 13 18.4243C11.07 18.4243 9.32 17.6583 8.06 16.4268L6.64 17.8037C8.27 19.3843 10.51 20.3637 13 20.3637C17.97 20.3637 22 16.4558 22 11.6365C22 6.81706 17.97 2.90918 13 2.90918Z" fill="white"/>
</mask>
<g mask="url(#mask0_220_11695)">
</g>
</svg>
