<svg width="24" height="24" viewBox="0 0 24 24" fill="none" xmlns="http://www.w3.org/2000/svg">
  <path fill-rule="evenodd" clip-rule="evenodd"
        d="M16.5531 20.6116H12.3006V18.7012L16.5531 16.9908V20.6116ZM19.1547 13.9847C19.1547 13.9847 18.8281 12.7134 17.8431 11.6664L14.3331 12.7256L12.1547 13.3786L11.1064 10.6864L10.0772 8.25339L8.83806 5.29687C8.83806 5.29687 8.23473 3.83774 6.76723 4.34817C6.76723 4.34817 6.7239 4.36469 6.6589 4.39774L6.31556 2.4273C6.26556 2.14556 6.00556 1.95687 5.73556 2.00817L5.40973 2.06991C5.13973 2.12121 4.9589 2.39339 5.00806 2.67513L5.59723 6.05339C5.60973 6.12643 5.63806 6.19252 5.6764 6.25078C5.69056 6.50643 5.73723 6.78904 5.84056 7.11165L9.35306 15.4751L10.1706 17.3916C10.1706 17.3916 10.4914 18.2082 10.8647 18.4247L10.8681 19.4873L10.8647 20.6343L10.8497 21.3212C10.8497 21.3212 10.9206 21.9316 11.3789 21.9612C11.8372 21.9908 13.5314 21.969 13.5314 21.969H15.7506L17.4872 21.9647C17.4872 21.9647 17.8956 21.9464 18.0156 21.4908L18.0472 20.8656L18.0397 19.7151L18.0439 18.3143L18.0506 16.6273C18.0506 16.6273 18.7239 16.5212 19.1581 15.9169C19.1581 15.9169 19.5631 15.4995 19.1547 13.9847Z"
        fill="#B50080"/>
  <mask id="mask0_220_11597" style="mask-type:luminance" maskUnits="userSpaceOnUse" x="5" y="1" width="15" height="21">
    <path fill-rule="evenodd" clip-rule="evenodd"
          d="M16.5531 20.6116H12.3006V18.7012L16.5531 16.9908V20.6116ZM19.1547 13.9847C19.1547 13.9847 18.8281 12.7134 17.8431 11.6664L14.3331 12.7256L12.1547 13.3786L11.1064 10.6864L10.0772 8.25339L8.83806 5.29687C8.83806 5.29687 8.23473 3.83774 6.76723 4.34817C6.76723 4.34817 6.7239 4.36469 6.6589 4.39774L6.31556 2.4273C6.26556 2.14556 6.00556 1.95687 5.73556 2.00817L5.40973 2.06991C5.13973 2.12121 4.9589 2.39339 5.00806 2.67513L5.59723 6.05339C5.60973 6.12643 5.63806 6.19252 5.6764 6.25078C5.69056 6.50643 5.73723 6.78904 5.84056 7.11165L9.35306 15.4751L10.1706 17.3916C10.1706 17.3916 10.4914 18.2082 10.8647 18.4247L10.8681 19.4873L10.8647 20.6343L10.8497 21.3212C10.8497 21.3212 10.9206 21.9316 11.3789 21.9612C11.8372 21.9908 13.5314 21.969 13.5314 21.969H15.7506L17.4872 21.9647C17.4872 21.9647 17.8956 21.9464 18.0156 21.4908L18.0472 20.8656L18.0397 19.7151L18.0439 18.3143L18.0506 16.6273C18.0506 16.6273 18.7239 16.5212 19.1581 15.9169C19.1581 15.9169 19.5631 15.4995 19.1547 13.9847Z"
          fill="white"/>
  </mask>
  <g mask="url(#mask0_220_11597)">
  </g>
</svg>
